# Blender 4.2.0
# www.blender.org
mtllib bridges.mtl
o Cube
v -6.325051 7.565982 -7.192086
v -6.325051 7.349037 -7.192086
v -6.242147 7.565982 -7.377644
v -6.242147 7.349037 -7.377644
v -4.792739 7.565982 -6.507484
v -4.792739 7.349037 -6.507484
v -4.709836 7.565982 -6.693042
v -4.709836 7.349037 -6.693042
v -6.233857 7.565982 -7.396200
v -6.233857 7.349037 -7.396200
v -6.150954 7.565982 -7.581758
v -6.150954 7.349037 -7.581758
v -4.701545 7.565982 -6.711597
v -4.701545 7.349037 -6.711597
v -4.618642 7.565982 -6.897155
v -4.618642 7.349037 -6.897155
v -6.142664 7.565982 -7.600314
v -6.142664 7.349037 -7.600314
v -6.059761 7.565982 -7.785872
v -6.059761 7.349037 -7.785872
v -4.610352 7.565982 -6.915711
v -4.610352 7.349037 -6.915711
v -4.527449 7.565982 -7.101269
v -4.527449 7.349037 -7.101269
v -6.051471 7.565982 -7.804427
v -6.051471 7.349037 -7.804427
v -5.968567 7.565982 -7.989985
v -5.968567 7.349037 -7.989985
v -4.519159 7.565982 -7.119824
v -4.519159 7.349037 -7.119824
v -4.436255 7.565982 -7.305382
v -4.436255 7.349037 -7.305382
v -5.960277 7.565982 -8.008541
v -5.960277 7.349037 -8.008541
v -5.877374 7.565982 -8.194098
v -5.877374 7.349037 -8.194098
v -4.427965 7.565982 -7.323938
v -4.427965 7.349037 -7.323938
v -4.345062 7.565982 -7.509496
v -4.345062 7.349037 -7.509496
v -5.869084 7.565982 -8.212654
v -5.869084 7.349037 -8.212654
v -5.786181 7.565982 -8.398212
v -5.786181 7.349037 -8.398212
v -4.336772 7.565982 -7.528052
v -4.336772 7.349037 -7.528052
v -4.253869 7.565982 -7.713610
v -4.253869 7.349037 -7.713610
v -5.777891 7.565982 -8.416768
v -5.777891 7.349037 -8.416768
v -5.694987 7.565982 -8.602325
v -5.694987 7.349037 -8.602325
v -4.245579 7.565982 -7.732165
v -4.245579 7.349037 -7.732165
v -4.162676 7.565982 -7.917723
v -4.162676 7.349037 -7.917723
v -5.686697 7.565982 -8.620881
v -5.686697 7.349037 -8.620881
v -5.603794 7.565982 -8.806439
v -5.603794 7.349037 -8.806439
v -4.154386 7.565982 -7.936279
v -4.154386 7.349037 -7.936279
v -4.071482 7.565982 -8.121837
v -4.071482 7.349037 -8.121837
v -5.595504 7.565982 -8.824995
v -5.595504 7.349037 -8.824995
v -5.512601 7.565982 -9.010552
v -5.512601 7.349037 -9.010552
v -4.063192 7.565982 -8.140392
v -4.063192 7.349037 -8.140392
v -3.980289 7.565982 -8.325951
v -3.980289 7.349037 -8.325951
v -5.504311 7.565982 -9.029108
v -5.504311 7.349037 -9.029108
v -5.421408 7.565982 -9.214666
v -5.421408 7.349037 -9.214666
v -3.971999 7.565982 -8.344506
v -3.971999 7.349037 -8.344506
v -3.889096 7.565982 -8.530064
v -3.889096 7.349037 -8.530064
v -5.413117 7.565982 -9.233222
v -5.413117 7.349037 -9.233222
v -5.330214 7.565982 -9.418779
v -5.330214 7.349037 -9.418779
v -3.880805 7.565982 -8.548619
v -3.880805 7.349037 -8.548619
v -3.797902 7.565982 -8.734178
v -3.797902 7.349037 -8.734178
v -5.321924 7.565982 -9.437336
v -5.321924 7.349037 -9.437336
v -5.239021 7.565982 -9.622893
v -5.239021 7.349037 -9.622893
v -3.789612 7.565982 -8.752733
v -3.789612 7.349037 -8.752733
v -3.706709 7.565982 -8.938291
v -3.706709 7.349037 -8.938291
vn -0.9130 -0.0000 -0.4079
vn 0.4079 -0.0000 -0.9130
vn 0.9130 -0.0000 0.4079
vn -0.4079 -0.0000 0.9130
vn -0.0000 1.0000 -0.0000
vn -0.0000 -1.0000 -0.0000
vt 0.375000 0.000000
vt 0.625000 0.000000
vt 0.625000 0.250000
vt 0.375000 0.250000
vt 0.625000 0.500000
vt 0.375000 0.500000
vt 0.625000 0.750000
vt 0.375000 0.750000
vt 0.625000 1.000000
vt 0.375000 1.000000
vt 0.125000 0.500000
vt 0.125000 0.750000
vt 0.875000 0.500000
vt 0.875000 0.750000
s 0
f 1/1/1 3/4/1 4/3/1 2/2/1
f 3/4/2 7/6/2 8/5/2 4/3/2
f 7/6/3 5/8/3 6/7/3 8/5/3
f 5/8/4 1/10/4 2/9/4 6/7/4
f 3/11/5 1/12/5 5/8/5 7/6/5
f 8/5/6 6/7/6 2/14/6 4/13/6
f 9/1/1 11/4/1 12/3/1 10/2/1
f 11/4/2 15/6/2 16/5/2 12/3/2
f 15/6/3 13/8/3 14/7/3 16/5/3
f 13/8/4 9/10/4 10/9/4 14/7/4
f 11/11/5 9/12/5 13/8/5 15/6/5
f 16/5/6 14/7/6 10/14/6 12/13/6
f 17/1/1 19/4/1 20/3/1 18/2/1
f 19/4/2 23/6/2 24/5/2 20/3/2
f 23/6/3 21/8/3 22/7/3 24/5/3
f 21/8/4 17/10/4 18/9/4 22/7/4
f 19/11/5 17/12/5 21/8/5 23/6/5
f 24/5/6 22/7/6 18/14/6 20/13/6
f 25/1/1 27/4/1 28/3/1 26/2/1
f 27/4/2 31/6/2 32/5/2 28/3/2
f 31/6/3 29/8/3 30/7/3 32/5/3
f 29/8/4 25/10/4 26/9/4 30/7/4
f 27/11/5 25/12/5 29/8/5 31/6/5
f 32/5/6 30/7/6 26/14/6 28/13/6
f 33/1/1 35/4/1 36/3/1 34/2/1
f 35/4/2 39/6/2 40/5/2 36/3/2
f 39/6/3 37/8/3 38/7/3 40/5/3
f 37/8/4 33/10/4 34/9/4 38/7/4
f 35/11/5 33/12/5 37/8/5 39/6/5
f 40/5/6 38/7/6 34/14/6 36/13/6
f 41/1/1 43/4/1 44/3/1 42/2/1
f 43/4/2 47/6/2 48/5/2 44/3/2
f 47/6/3 45/8/3 46/7/3 48/5/3
f 45/8/4 41/10/4 42/9/4 46/7/4
f 43/11/5 41/12/5 45/8/5 47/6/5
f 48/5/6 46/7/6 42/14/6 44/13/6
f 49/1/1 51/4/1 52/3/1 50/2/1
f 51/4/2 55/6/2 56/5/2 52/3/2
f 55/6/3 53/8/3 54/7/3 56/5/3
f 53/8/4 49/10/4 50/9/4 54/7/4
f 51/11/5 49/12/5 53/8/5 55/6/5
f 56/5/6 54/7/6 50/14/6 52/13/6
f 57/1/1 59/4/1 60/3/1 58/2/1
f 59/4/2 63/6/2 64/5/2 60/3/2
f 63/6/3 61/8/3 62/7/3 64/5/3
f 61/8/4 57/10/4 58/9/4 62/7/4
f 59/11/5 57/12/5 61/8/5 63/6/5
f 64/5/6 62/7/6 58/14/6 60/13/6
f 65/1/1 67/4/1 68/3/1 66/2/1
f 67/4/2 71/6/2 72/5/2 68/3/2
f 71/6/3 69/8/3 70/7/3 72/5/3
f 69/8/4 65/10/4 66/9/4 70/7/4
f 67/11/5 65/12/5 69/8/5 71/6/5
f 72/5/6 70/7/6 66/14/6 68/13/6
f 73/1/1 75/4/1 76/3/1 74/2/1
f 75/4/2 79/6/2 80/5/2 76/3/2
f 79/6/3 77/8/3 78/7/3 80/5/3
f 77/8/4 73/10/4 74/9/4 78/7/4
f 75/11/5 73/12/5 77/8/5 79/6/5
f 80/5/6 78/7/6 74/14/6 76/13/6
f 81/1/1 83/4/1 84/3/1 82/2/1
f 83/4/2 87/6/2 88/5/2 84/3/2
f 87/6/3 85/8/3 86/7/3 88/5/3
f 85/8/4 81/10/4 82/9/4 86/7/4
f 83/11/5 81/12/5 85/8/5 87/6/5
f 88/5/6 86/7/6 82/14/6 84/13/6
f 89/1/1 91/4/1 92/3/1 90/2/1
f 91/4/2 95/6/2 96/5/2 92/3/2
f 95/6/3 93/8/3 94/7/3 96/5/3
f 93/8/4 89/10/4 90/9/4 94/7/4
f 91/11/5 89/12/5 93/8/5 95/6/5
f 96/5/6 94/7/6 90/14/6 92/13/6
o Cube.001
v -2.619140 7.563277 -6.295807
v -2.619140 7.346332 -6.295807
v -2.542557 7.563277 -6.486826
v -2.542557 7.346332 -6.486826
v -0.933657 7.563277 -5.620067
v -0.933657 7.346332 -5.620067
v -0.857074 7.563277 -5.811086
v -0.857074 7.346332 -5.811086
v -2.534899 7.563277 -6.505928
v -2.534899 7.346332 -6.505928
v -2.458316 7.563277 -6.696947
v -2.458316 7.346332 -6.696947
v -0.849416 7.563277 -5.830187
v -0.849416 7.346332 -5.830187
v -0.772833 7.563277 -6.021207
v -0.772833 7.346332 -6.021207
v -2.450658 7.563277 -6.716049
v -2.450658 7.346332 -6.716049
v -2.374075 7.563277 -6.907068
v -2.374075 7.346332 -6.907068
v -0.765174 7.563277 -6.040308
v -0.765174 7.346332 -6.040308
v -0.688591 7.563277 -6.231328
v -0.688591 7.346332 -6.231328
v -2.366416 7.563277 -6.926170
v -2.366416 7.346332 -6.926170
v -2.289834 7.563277 -7.117189
v -2.289834 7.346332 -7.117189
v -0.680933 7.563277 -6.250430
v -0.680933 7.346332 -6.250430
v -0.604350 7.563277 -6.441449
v -0.604350 7.346332 -6.441449
v -2.282175 7.563277 -7.136291
v -2.282175 7.346332 -7.136291
v -2.205592 7.563277 -7.327310
v -2.205592 7.346332 -7.327310
v -0.596692 7.563277 -6.460550
v -0.596692 7.346332 -6.460550
v -0.520109 7.563277 -6.651570
v -0.520109 7.346332 -6.651570
v -2.197934 7.563277 -7.346412
v -2.197934 7.346332 -7.346412
v -2.121351 7.563277 -7.537431
v -2.121351 7.346332 -7.537431
v -0.512451 7.563277 -6.670671
v -0.512451 7.346332 -6.670671
v -0.435868 7.563277 -6.861691
v -0.435868 7.346332 -6.861691
v -2.113693 7.563277 -7.556533
v -2.113693 7.346332 -7.556533
v -2.037110 7.563277 -7.747552
v -2.037110 7.346332 -7.747552
v -0.428209 7.563277 -6.880793
v -0.428209 7.346332 -6.880793
v -0.351626 7.563277 -7.071812
v -0.351626 7.346332 -7.071812
v -2.029451 7.563277 -7.766654
v -2.029451 7.346332 -7.766654
v -1.952868 7.563277 -7.957673
v -1.952868 7.346332 -7.957673
v -0.343968 7.563277 -7.090914
v -0.343968 7.346332 -7.090914
v -0.267385 7.563277 -7.281933
v -0.267385 7.346332 -7.281933
v -1.945210 7.563277 -7.976775
v -1.945210 7.346332 -7.976775
v -1.868627 7.563277 -8.167794
v -1.868627 7.346332 -8.167794
v -0.259727 7.563277 -7.301035
v -0.259727 7.346332 -7.301035
v -0.183144 7.563277 -7.492054
v -0.183144 7.346332 -7.492054
v -1.860969 7.563277 -8.186896
v -1.860969 7.346332 -8.186896
v -1.784386 7.563277 -8.377915
v -1.784386 7.346332 -8.377915
v -0.175485 7.563277 -7.511156
v -0.175485 7.346332 -7.511156
v -0.098902 7.563277 -7.702175
v -0.098902 7.346332 -7.702175
vn -0.9282 -0.0000 -0.3721
vn 0.3721 -0.0000 -0.9282
vn 0.9282 -0.0000 0.3721
vn -0.3721 -0.0000 0.9282
vn -0.0000 1.0000 -0.0000
vn -0.0000 -1.0000 -0.0000
vt 0.375000 0.000000
vt 0.625000 0.000000
vt 0.625000 0.250000
vt 0.375000 0.250000
vt 0.625000 0.500000
vt 0.375000 0.500000
vt 0.625000 0.750000
vt 0.375000 0.750000
vt 0.625000 1.000000
vt 0.375000 1.000000
vt 0.125000 0.500000
vt 0.125000 0.750000
vt 0.875000 0.500000
vt 0.875000 0.750000
s 0
f 97/15/7 99/18/7 100/17/7 98/16/7
f 99/18/8 103/20/8 104/19/8 100/17/8
f 103/20/9 101/22/9 102/21/9 104/19/9
f 101/22/10 97/24/10 98/23/10 102/21/10
f 99/25/11 97/26/11 101/22/11 103/20/11
f 104/19/12 102/21/12 98/28/12 100/27/12
f 105/15/7 107/18/7 108/17/7 106/16/7
f 107/18/8 111/20/8 112/19/8 108/17/8
f 111/20/9 109/22/9 110/21/9 112/19/9
f 109/22/10 105/24/10 106/23/10 110/21/10
f 107/25/11 105/26/11 109/22/11 111/20/11
f 112/19/12 110/21/12 106/28/12 108/27/12
f 113/15/7 115/18/7 116/17/7 114/16/7
f 115/18/8 119/20/8 120/19/8 116/17/8
f 119/20/9 117/22/9 118/21/9 120/19/9
f 117/22/10 113/24/10 114/23/10 118/21/10
f 115/25/11 113/26/11 117/22/11 119/20/11
f 120/19/12 118/21/12 114/28/12 116/27/12
f 121/15/7 123/18/7 124/17/7 122/16/7
f 123/18/8 127/20/8 128/19/8 124/17/8
f 127/20/9 125/22/9 126/21/9 128/19/9
f 125/22/10 121/24/10 122/23/10 126/21/10
f 123/25/11 121/26/11 125/22/11 127/20/11
f 128/19/12 126/21/12 122/28/12 124/27/12
f 129/15/7 131/18/7 132/17/7 130/16/7
f 131/18/8 135/20/8 136/19/8 132/17/8
f 135/20/9 133/22/9 134/21/9 136/19/9
f 133/22/10 129/24/10 130/23/10 134/21/10
f 131/25/11 129/26/11 133/22/11 135/20/11
f 136/19/12 134/21/12 130/28/12 132/27/12
f 137/15/7 139/18/7 140/17/7 138/16/7
f 139/18/8 143/20/8 144/19/8 140/17/8
f 143/20/9 141/22/9 142/21/9 144/19/9
f 141/22/10 137/24/10 138/23/10 142/21/10
f 139/25/11 137/26/11 141/22/11 143/20/11
f 144/19/12 142/21/12 138/28/12 140/27/12
f 145/15/7 147/18/7 148/17/7 146/16/7
f 147/18/8 151/20/8 152/19/8 148/17/8
f 151/20/9 149/22/9 150/21/9 152/19/9
f 149/22/10 145/24/10 146/23/10 150/21/10
f 147/25/11 145/26/11 149/22/11 151/20/11
f 152/19/12 150/21/12 146/28/12 148/27/12
f 153/15/7 155/18/7 156/17/7 154/16/7
f 155/18/8 159/20/8 160/19/8 156/17/8
f 159/20/9 157/22/9 158/21/9 160/19/9
f 157/22/10 153/24/10 154/23/10 158/21/10
f 155/25/11 153/26/11 157/22/11 159/20/11
f 160/19/12 158/21/12 154/28/12 156/27/12
f 161/15/7 163/18/7 164/17/7 162/16/7
f 163/18/8 167/20/8 168/19/8 164/17/8
f 167/20/9 165/22/9 166/21/9 168/19/9
f 165/22/10 161/24/10 162/23/10 166/21/10
f 163/25/11 161/26/11 165/22/11 167/20/11
f 168/19/12 166/21/12 162/28/12 164/27/12
f 169/15/7 171/18/7 172/17/7 170/16/7
f 171/18/8 175/20/8 176/19/8 172/17/8
f 175/20/9 173/22/9 174/21/9 176/19/9
f 173/22/10 169/24/10 170/23/10 174/21/10
f 171/25/11 169/26/11 173/22/11 175/20/11
f 176/19/12 174/21/12 170/28/12 172/27/12
o Cube.002
v -0.194647 7.565982 -24.170511
v -0.194647 7.349037 -24.170511
v 0.008589 7.565982 -24.170511
v 0.008589 7.349037 -24.170511
v -0.194647 7.565982 -22.335466
v -0.194647 7.349037 -22.335466
v 0.008589 7.565982 -22.335466
v 0.008589 7.349037 -22.335466
v 0.028912 7.565982 -24.170511
v 0.028912 7.349037 -24.170511
v 0.232148 7.565982 -24.170511
v 0.232148 7.349037 -24.170511
v 0.028912 7.565982 -22.335466
v 0.028912 7.349037 -22.335466
v 0.232148 7.565982 -22.335466
v 0.232148 7.349037 -22.335466
v 0.252471 7.565982 -24.170511
v 0.252471 7.349037 -24.170511
v 0.455706 7.565982 -24.170511
v 0.455706 7.349037 -24.170511
v 0.252471 7.565982 -22.335466
v 0.252471 7.349037 -22.335466
v 0.455706 7.565982 -22.335466
v 0.455706 7.349037 -22.335466
v 0.476030 7.565982 -24.170511
v 0.476030 7.349037 -24.170511
v 0.679265 7.565982 -24.170511
v 0.679265 7.349037 -24.170511
v 0.476030 7.565982 -22.335466
v 0.476030 7.349037 -22.335466
v 0.679265 7.565982 -22.335466
v 0.679265 7.349037 -22.335466
v 0.699589 7.565982 -24.170511
v 0.699589 7.349037 -24.170511
v 0.902824 7.565982 -24.170511
v 0.902824 7.349037 -24.170511
v 0.699589 7.565982 -22.335466
v 0.699589 7.349037 -22.335466
v 0.902824 7.565982 -22.335466
v 0.902824 7.349037 -22.335466
v 0.923148 7.565982 -24.170511
v 0.923148 7.349037 -24.170511
v 1.126383 7.565982 -24.170511
v 1.126383 7.349037 -24.170511
v 0.923148 7.565982 -22.335466
v 0.923148 7.349037 -22.335466
v 1.126383 7.565982 -22.335466
v 1.126383 7.349037 -22.335466
v 1.146707 7.565982 -24.170511
v 1.146707 7.349037 -24.170511
v 1.349942 7.565982 -24.170511
v 1.349942 7.349037 -24.170511
v 1.146707 7.565982 -22.335466
v 1.146707 7.349037 -22.335466
v 1.349942 7.565982 -22.335466
v 1.349942 7.349037 -22.335466
v 1.370265 7.565982 -24.170511
v 1.370265 7.349037 -24.170511
v 1.573501 7.565982 -24.170511
v 1.573501 7.349037 -24.170511
v 1.370265 7.565982 -22.335466
v 1.370265 7.349037 -22.335466
v 1.573501 7.565982 -22.335466
v 1.573501 7.349037 -22.335466
v 1.593824 7.565982 -24.170511
v 1.593824 7.349037 -24.170511
v 1.797060 7.565982 -24.170511
v 1.797060 7.349037 -24.170511
v 1.593824 7.565982 -22.335466
v 1.593824 7.349037 -22.335466
v 1.797060 7.565982 -22.335466
v 1.797060 7.349037 -22.335466
v 1.817383 7.565982 -24.170511
v 1.817383 7.349037 -24.170511
v 2.020619 7.565982 -24.170511
v 2.020619 7.349037 -24.170511
v 1.817383 7.565982 -22.335466
v 1.817383 7.349037 -22.335466
v 2.020619 7.565982 -22.335464
v 2.020619 7.349037 -22.335464
v 2.040942 7.565982 -24.170511
v 2.040942 7.349037 -24.170511
v 2.244178 7.565982 -24.170511
v 2.244178 7.349037 -24.170511
v 2.040942 7.565982 -22.335464
v 2.040942 7.349037 -22.335464
v 2.244178 7.565982 -22.335464
v 2.244178 7.349037 -22.335464
v 2.264501 7.565982 -24.170511
v 2.264501 7.349037 -24.170511
v 2.467736 7.565982 -24.170511
v 2.467736 7.349037 -24.170511
v 2.264501 7.565982 -22.335464
v 2.264501 7.349037 -22.335464
v 2.467736 7.565982 -22.335464
v 2.467736 7.349037 -22.335464
v 2.488060 7.565982 -24.170511
v 2.488060 7.349037 -24.170511
v 2.691296 7.565982 -24.170511
v 2.691296 7.349037 -24.170511
v 2.488060 7.565982 -22.335464
v 2.488060 7.349037 -22.335464
v 2.691296 7.565982 -22.335464
v 2.691296 7.349037 -22.335464
v 2.711619 7.565982 -24.170511
v 2.711619 7.349037 -24.170511
v 2.914855 7.565982 -24.170511
v 2.914855 7.349037 -24.170511
v 2.711619 7.565982 -22.335464
v 2.711619 7.349037 -22.335464
v 2.914855 7.565982 -22.335464
v 2.914855 7.349037 -22.335464
v 2.935178 7.565982 -24.170511
v 2.935178 7.349037 -24.170511
v 3.138413 7.565982 -24.170511
v 3.138413 7.349037 -24.170511
v 2.935178 7.565982 -22.335464
v 2.935178 7.349037 -22.335464
v 3.138413 7.565982 -22.335464
v 3.138413 7.349037 -22.335464
v 3.158737 7.565982 -24.170511
v 3.158737 7.349037 -24.170511
v 3.361972 7.565982 -24.170511
v 3.361972 7.349037 -24.170511
v 3.158737 7.565982 -22.335464
v 3.158737 7.349037 -22.335464
v 3.361972 7.565982 -22.335464
v 3.361972 7.349037 -22.335464
v 3.382296 7.565982 -24.170511
v 3.382296 7.349037 -24.170511
v 3.585531 7.565982 -24.170511
v 3.585531 7.349037 -24.170511
v 3.382296 7.565982 -22.335464
v 3.382296 7.349037 -22.335464
v 3.585531 7.565982 -22.335464
v 3.585531 7.349037 -22.335464
v 3.605855 7.565982 -24.170511
v 3.605855 7.349037 -24.170511
v 3.809090 7.565982 -24.170511
v 3.809090 7.349037 -24.170511
v 3.605855 7.565982 -22.335464
v 3.605855 7.349037 -22.335464
v 3.809090 7.565982 -22.335464
v 3.809090 7.349037 -22.335464
v 3.829414 7.565982 -24.170511
v 3.829414 7.349037 -24.170511
v 4.032649 7.565982 -24.170511
v 4.032649 7.349037 -24.170511
v 3.829414 7.565982 -22.335464
v 3.829414 7.349037 -22.335464
v 4.032649 7.565982 -22.335464
v 4.032649 7.349037 -22.335464
v 4.052973 7.565982 -24.170511
v 4.052973 7.349037 -24.170511
v 4.256208 7.565982 -24.170511
v 4.256208 7.349037 -24.170511
v 4.052973 7.565982 -22.335464
v 4.052973 7.349037 -22.335464
v 4.256208 7.565982 -22.335464
v 4.256208 7.349037 -22.335464
v 4.276532 7.565982 -24.170511
v 4.276532 7.349037 -24.170511
v 4.479767 7.565982 -24.170511
v 4.479767 7.349037 -24.170511
v 4.276532 7.565982 -22.335464
v 4.276532 7.349037 -22.335464
v 4.479767 7.565982 -22.335464
v 4.479767 7.349037 -22.335464
vn -0.0000 -0.0000 -1.0000
vn 1.0000 -0.0000 -0.0000
vn -0.0000 -0.0000 1.0000
vn -1.0000 -0.0000 -0.0000
vn -0.0000 1.0000 -0.0000
vn -0.0000 -1.0000 -0.0000
vt 0.375000 0.000000
vt 0.625000 0.000000
vt 0.625000 0.250000
vt 0.375000 0.250000
vt 0.625000 0.500000
vt 0.375000 0.500000
vt 0.625000 0.750000
vt 0.375000 0.750000
vt 0.625000 1.000000
vt 0.375000 1.000000
vt 0.125000 0.500000
vt 0.125000 0.750000
vt 0.875000 0.500000
vt 0.875000 0.750000
s 0
f 177/29/13 179/32/13 180/31/13 178/30/13
f 179/32/14 183/34/14 184/33/14 180/31/14
f 183/34/15 181/36/15 182/35/15 184/33/15
f 181/36/16 177/38/16 178/37/16 182/35/16
f 179/39/17 177/40/17 181/36/17 183/34/17
f 184/33/18 182/35/18 178/42/18 180/41/18
f 185/29/13 187/32/13 188/31/13 186/30/13
f 187/32/14 191/34/14 192/33/14 188/31/14
f 191/34/15 189/36/15 190/35/15 192/33/15
f 189/36/16 185/38/16 186/37/16 190/35/16
f 187/39/17 185/40/17 189/36/17 191/34/17
f 192/33/18 190/35/18 186/42/18 188/41/18
f 193/29/13 195/32/13 196/31/13 194/30/13
f 195/32/14 199/34/14 200/33/14 196/31/14
f 199/34/15 197/36/15 198/35/15 200/33/15
f 197/36/16 193/38/16 194/37/16 198/35/16
f 195/39/17 193/40/17 197/36/17 199/34/17
f 200/33/18 198/35/18 194/42/18 196/41/18
f 201/29/13 203/32/13 204/31/13 202/30/13
f 203/32/14 207/34/14 208/33/14 204/31/14
f 207/34/15 205/36/15 206/35/15 208/33/15
f 205/36/16 201/38/16 202/37/16 206/35/16
f 203/39/17 201/40/17 205/36/17 207/34/17
f 208/33/18 206/35/18 202/42/18 204/41/18
f 209/29/13 211/32/13 212/31/13 210/30/13
f 211/32/14 215/34/14 216/33/14 212/31/14
f 215/34/15 213/36/15 214/35/15 216/33/15
f 213/36/16 209/38/16 210/37/16 214/35/16
f 211/39/17 209/40/17 213/36/17 215/34/17
f 216/33/18 214/35/18 210/42/18 212/41/18
f 217/29/13 219/32/13 220/31/13 218/30/13
f 219/32/14 223/34/14 224/33/14 220/31/14
f 223/34/15 221/36/15 222/35/15 224/33/15
f 221/36/16 217/38/16 218/37/16 222/35/16
f 219/39/17 217/40/17 221/36/17 223/34/17
f 224/33/18 222/35/18 218/42/18 220/41/18
f 225/29/13 227/32/13 228/31/13 226/30/13
f 227/32/14 231/34/14 232/33/14 228/31/14
f 231/34/15 229/36/15 230/35/15 232/33/15
f 229/36/16 225/38/16 226/37/16 230/35/16
f 227/39/17 225/40/17 229/36/17 231/34/17
f 232/33/18 230/35/18 226/42/18 228/41/18
f 233/29/13 235/32/13 236/31/13 234/30/13
f 235/32/14 239/34/14 240/33/14 236/31/14
f 239/34/15 237/36/15 238/35/15 240/33/15
f 237/36/16 233/38/16 234/37/16 238/35/16
f 235/39/17 233/40/17 237/36/17 239/34/17
f 240/33/18 238/35/18 234/42/18 236/41/18
f 241/29/13 243/32/13 244/31/13 242/30/13
f 243/32/14 247/34/14 248/33/14 244/31/14
f 247/34/15 245/36/15 246/35/15 248/33/15
f 245/36/16 241/38/16 242/37/16 246/35/16
f 243/39/17 241/40/17 245/36/17 247/34/17
f 248/33/18 246/35/18 242/42/18 244/41/18
f 249/29/13 251/32/13 252/31/13 250/30/13
f 251/32/14 255/34/14 256/33/14 252/31/14
f 255/34/15 253/36/15 254/35/15 256/33/15
f 253/36/16 249/38/16 250/37/16 254/35/16
f 251/39/17 249/40/17 253/36/17 255/34/17
f 256/33/18 254/35/18 250/42/18 252/41/18
f 257/29/13 259/32/13 260/31/13 258/30/13
f 259/32/14 263/34/14 264/33/14 260/31/14
f 263/34/15 261/36/15 262/35/15 264/33/15
f 261/36/16 257/38/16 258/37/16 262/35/16
f 259/39/17 257/40/17 261/36/17 263/34/17
f 264/33/18 262/35/18 258/42/18 260/41/18
f 265/29/13 267/32/13 268/31/13 266/30/13
f 267/32/14 271/34/14 272/33/14 268/31/14
f 271/34/15 269/36/15 270/35/15 272/33/15
f 269/36/16 265/38/16 266/37/16 270/35/16
f 267/39/17 265/40/17 269/36/17 271/34/17
f 272/33/18 270/35/18 266/42/18 268/41/18
f 273/29/13 275/32/13 276/31/13 274/30/13
f 275/32/14 279/34/14 280/33/14 276/31/14
f 279/34/15 277/36/15 278/35/15 280/33/15
f 277/36/16 273/38/16 274/37/16 278/35/16
f 275/39/17 273/40/17 277/36/17 279/34/17
f 280/33/18 278/35/18 274/42/18 276/41/18
f 281/29/13 283/32/13 284/31/13 282/30/13
f 283/32/14 287/34/14 288/33/14 284/31/14
f 287/34/15 285/36/15 286/35/15 288/33/15
f 285/36/16 281/38/16 282/37/16 286/35/16
f 283/39/17 281/40/17 285/36/17 287/34/17
f 288/33/18 286/35/18 282/42/18 284/41/18
f 289/29/13 291/32/13 292/31/13 290/30/13
f 291/32/14 295/34/14 296/33/14 292/31/14
f 295/34/15 293/36/15 294/35/15 296/33/15
f 293/36/16 289/38/16 290/37/16 294/35/16
f 291/39/17 289/40/17 293/36/17 295/34/17
f 296/33/18 294/35/18 290/42/18 292/41/18
f 297/29/13 299/32/13 300/31/13 298/30/13
f 299/32/14 303/34/14 304/33/14 300/31/14
f 303/34/15 301/36/15 302/35/15 304/33/15
f 301/36/16 297/38/16 298/37/16 302/35/16
f 299/39/17 297/40/17 301/36/17 303/34/17
f 304/33/18 302/35/18 298/42/18 300/41/18
f 305/29/13 307/32/13 308/31/13 306/30/13
f 307/32/14 311/34/14 312/33/14 308/31/14
f 311/34/15 309/36/15 310/35/15 312/33/15
f 309/36/16 305/38/16 306/37/16 310/35/16
f 307/39/17 305/40/17 309/36/17 311/34/17
f 312/33/18 310/35/18 306/42/18 308/41/18
f 313/29/13 315/32/13 316/31/13 314/30/13
f 315/32/14 319/34/14 320/33/14 316/31/14
f 319/34/15 317/36/15 318/35/15 320/33/15
f 317/36/16 313/38/16 314/37/16 318/35/16
f 315/39/17 313/40/17 317/36/17 319/34/17
f 320/33/18 318/35/18 314/42/18 316/41/18
f 321/29/13 323/32/13 324/31/13 322/30/13
f 323/32/14 327/34/14 328/33/14 324/31/14
f 327/34/15 325/36/15 326/35/15 328/33/15
f 325/36/16 321/38/16 322/37/16 326/35/16
f 323/39/17 321/40/17 325/36/17 327/34/17
f 328/33/18 326/35/18 322/42/18 324/41/18
f 329/29/13 331/32/13 332/31/13 330/30/13
f 331/32/14 335/34/14 336/33/14 332/31/14
f 335/34/15 333/36/15 334/35/15 336/33/15
f 333/36/16 329/38/16 330/37/16 334/35/16
f 331/39/17 329/40/17 333/36/17 335/34/17
f 336/33/18 334/35/18 330/42/18 332/41/18
f 337/29/13 339/32/13 340/31/13 338/30/13
f 339/32/14 343/34/14 344/33/14 340/31/14
f 343/34/15 341/36/15 342/35/15 344/33/15
f 341/36/16 337/38/16 338/37/16 342/35/16
f 339/39/17 337/40/17 341/36/17 343/34/17
f 344/33/18 342/35/18 338/42/18 340/41/18
